<svg version="1.1" xmlns="http://www.w3.org/2000/svg" viewBox="0 0 622.8205315566692 548.6208958071666" width="622.8205315566692" height="548.6208958071666" filter="invert(93%) hue-rotate(180deg)">
  <!-- svg-source:excalidraw -->
  
  <defs>
    <style class="style-fonts">
      @font-face {
        font-family: "Virgil";
        src: url("https://excalidraw.com/Virgil.woff2");
      }
      @font-face {
        font-family: "Cascadia";
        src: url("https://excalidraw.com/Cascadia.woff2");
      }
    </style>
  </defs>
  <rect x="0" y="0" width="622.8205315566692" height="548.6208958071666" fill="#ffffff"></rect><g stroke-linecap="round" transform="translate(10 13.118697775285739) rotate(0 100.56740033956555 120.90149890274753)"><path d="M32 0 M32 0 C73.38 -0.2, 113.62 -1.35, 169.13 0 M32 0 C85.51 0.42, 141.76 1.09, 169.13 0 M169.13 0 C191.82 -1.2, 200.07 11.79, 201.13 32 M169.13 0 C192.2 -0.29, 200.02 11.32, 201.13 32 M201.13 32 C200.62 102.58, 202.48 168.13, 201.13 209.8 M201.13 32 C201.1 69.08, 200.47 107.2, 201.13 209.8 M201.13 209.8 C202.33 231.93, 189.21 239.89, 169.13 241.8 M201.13 209.8 C200.71 229.85, 189.72 240.65, 169.13 241.8 M169.13 241.8 C117.34 238.63, 70.03 239.74, 32 241.8 M169.13 241.8 C122.74 240.18, 75.56 239.56, 32 241.8 M32 241.8 C11.18 240.21, -0.51 232.06, 0 209.8 M32 241.8 C12.48 240.9, -1.89 232.77, 0 209.8 M0 209.8 C2.41 166.65, 2.43 120.05, 0 32 M0 209.8 C1.98 153.11, 1.92 97.18, 0 32 M0 32 C0.35 11.11, 11.44 -1.95, 32 0 M0 32 C-0.34 12.48, 12.21 -0.11, 32 0" stroke="#000000" stroke-width="1" fill="none"></path></g><g stroke-linecap="round" transform="translate(32.27079268955811 58.01318680969612) rotate(0 73.81797007161268 10.63479229845268)"><path d="M5.32 0 M5.32 0 C53.01 0.65, 101.08 0.06, 142.32 0 M5.32 0 C40.78 0.1, 75.44 0.41, 142.32 0 M142.32 0 C146.08 0.31, 149.23 0.51, 147.64 5.32 M142.32 0 C144.18 2.22, 147.93 3.9, 147.64 5.32 M147.64 5.32 C147.27 7.87, 148.56 11.42, 147.64 15.95 M147.64 5.32 C147.36 7.77, 147.37 10.73, 147.64 15.95 M147.64 15.95 C145.89 20.66, 144.63 22.03, 142.32 21.27 M147.64 15.95 C148.21 21.31, 146.51 19.81, 142.32 21.27 M142.32 21.27 C106.74 21.67, 70.94 22.21, 5.32 21.27 M142.32 21.27 C89.12 20.67, 33.41 20.53, 5.32 21.27 M5.32 21.27 C3.65 20.59, 0.61 18.67, 0 15.95 M5.32 21.27 C3.22 19.72, -0.82 20.25, 0 15.95 M0 15.95 C-0.75 12.43, 0.01 11.13, 0 5.32 M0 15.95 C0.09 13.18, -0.06 10.09, 0 5.32 M0 5.32 C-1.15 0.23, 2.24 0.38, 5.32 0 M0 5.32 C0.68 0.06, 3.39 -2.2, 5.32 0" stroke="#000000" stroke-width="1" fill="none"></path></g><g stroke-linecap="round" transform="translate(33.52194472467016 91.7942917577223) rotate(0 72.87960604527865 10.94758030723068)"><path d="M5.47 0 M5.47 0 C48.61 1.79, 94.65 1.22, 140.29 0 M5.47 0 C59.04 0, 112.49 0.24, 140.29 0 M140.29 0 C143.76 0.34, 144.96 0.13, 145.76 5.47 M140.29 0 C142.25 0.71, 145.01 2.27, 145.76 5.47 M145.76 5.47 C145.56 9.8, 146 13.86, 145.76 16.42 M145.76 5.47 C145.95 8.41, 146.24 10.57, 145.76 16.42 M145.76 16.42 C147.34 21.03, 145.23 20.06, 140.29 21.9 M145.76 16.42 C145.6 20.86, 143.69 21.91, 140.29 21.9 M140.29 21.9 C113.46 19.89, 85.81 19.86, 5.47 21.9 M140.29 21.9 C97.42 21.71, 56.03 22.77, 5.47 21.9 M5.47 21.9 C2.78 20.15, 0.66 19.64, 0 16.42 M5.47 21.9 C-0.47 23.83, -1.05 21.15, 0 16.42 M0 16.42 C-0.95 14.41, -0.41 11.08, 0 5.47 M0 16.42 C-0.26 12.41, 0 9.19, 0 5.47 M0 5.47 C0.39 1.75, 3.6 -1.72, 5.47 0 M0 5.47 C1.96 2.17, 0.01 -0.46, 5.47 0" stroke="#000000" stroke-width="1" fill="none"></path></g><g transform="translate(77.93784197114906 59.020099020368576) rotate(0 26.5 10)"><text x="0" y="14" font-family="Virgil, Segoe UI Emoji" font-size="16px" fill="#000000" text-anchor="start" style="white-space: pre;" direction="ltr">Correo</text></g><g transform="translate(61.04728949713592 91.05005193328265) rotate(0 46.5 10)"><text x="0" y="14" font-family="Virgil, Segoe UI Emoji" font-size="16px" fill="#000000" text-anchor="start" style="white-space: pre;" direction="ltr">Contraseña</text></g><g transform="translate(52.91480126890741 23.487842037230337) rotate(0 52.5 10)"><text x="0" y="14" font-family="Virgil, Segoe UI Emoji" font-size="16px" fill="#000000" text-anchor="start" style="white-space: pre;" direction="ltr">Iniciar sesion</text></g><g stroke-linecap="round" transform="translate(67.30304967269626 122.44751661796818) rotate(0 40.5 15)"><path d="M7.5 0 M7.5 0 C26.82 -1.36, 44.98 -0.67, 73.5 0 M7.5 0 C32.53 0.35, 58.5 0.8, 73.5 0 M73.5 0 C79.25 0.28, 80.27 4.15, 81 7.5 M73.5 0 C80.15 1.27, 78.91 4.09, 81 7.5 M81 7.5 C79.62 9.33, 80.07 14.92, 81 22.5 M81 7.5 C80.53 11.34, 81.14 14.02, 81 22.5 M81 22.5 C82.13 28.5, 78.94 29.06, 73.5 30 M81 22.5 C80.9 25.44, 77.47 32.25, 73.5 30 M73.5 30 C55.89 28.77, 42.75 29.28, 7.5 30 M73.5 30 C53.81 29.82, 34.42 30.02, 7.5 30 M7.5 30 C2.63 28.95, 1.24 27.24, 0 22.5 M7.5 30 C1.15 31.48, -0.4 25.57, 0 22.5 M0 22.5 C-0.3 16.08, -0.7 10.38, 0 7.5 M0 22.5 C-0.54 19.56, -0.13 15.58, 0 7.5 M0 7.5 C0.47 2.21, 3.59 0.73, 7.5 0 M0 7.5 C0.55 2.12, 3.82 -1.26, 7.5 0" stroke="#000000" stroke-width="1" fill="none"></path></g><g transform="translate(82.30304967269626 127.44751661796818) rotate(0 25.5 10)"><text x="25.5" y="14" font-family="Virgil, Segoe UI Emoji" font-size="16px" fill="#000000" text-anchor="middle" style="white-space: pre;" direction="ltr">Iniciar</text></g><g stroke-linecap="round" transform="translate(52.91480126890741 174.99590209267558) rotate(0 57.240205606377685 25)"><path d="M12.5 0 M12.5 0 C41.43 0.82, 69.84 -1.7, 101.98 0 M12.5 0 C40.32 -0.18, 66.89 -0.12, 101.98 0 M101.98 0 C110.47 1.64, 113.89 2.73, 114.48 12.5 M101.98 0 C112.2 0.33, 113.12 4.74, 114.48 12.5 M114.48 12.5 C113.52 17.93, 113.8 22.63, 114.48 37.5 M114.48 12.5 C114.63 18.62, 115.1 23.64, 114.48 37.5 M114.48 37.5 C115.5 47.52, 110.55 50.81, 101.98 50 M114.48 37.5 C116.31 44.11, 111.18 50.98, 101.98 50 M101.98 50 C83.46 52.28, 67.13 50.42, 12.5 50 M101.98 50 C76.75 49.18, 52.43 49.66, 12.5 50 M12.5 50 C4.59 49.83, -1.07 44.09, 0 37.5 M12.5 50 C6.15 47.79, 0.72 46.19, 0 37.5 M0 37.5 C-1.39 32.63, -1.58 22.57, 0 12.5 M0 37.5 C-0.28 29.48, -0.64 22.42, 0 12.5 M0 12.5 C-0.54 4.66, 3.67 1.77, 12.5 0 M0 12.5 C-0.26 2.42, 2.66 -0.96, 12.5 0" stroke="#000000" stroke-width="1" fill="none"></path></g><g transform="translate(80.6550068752851 179.99590209267558) rotate(0 29.5 20)"><text x="29.5" y="14" font-family="Virgil, Segoe UI Emoji" font-size="16px" fill="#000000" text-anchor="middle" style="white-space: pre;" direction="ltr">Crear </text><text x="29.5" y="34" font-family="Virgil, Segoe UI Emoji" font-size="16px" fill="#000000" text-anchor="middle" style="white-space: pre;" direction="ltr">usuario</text></g><g stroke-linecap="round"><g transform="translate(150.17809582383535 142.75911321451622) rotate(0 72.52350948920147 -36.89233200923918)"><path d="M0.96 0.28 C25.06 -11.98, 121.17 -61.71, 145.05 -74.07 M0 -0.61 C23.98 -12.64, 120.62 -60.62, 144.54 -72.61" stroke="#000000" stroke-width="1" fill="none"></path></g><g transform="translate(150.17809582383535 142.75911321451622) rotate(0 72.52350948920147 -36.89233200923918)"><path d="M124.36 -49.46 C130.66 -58.31, 137.91 -66.91, 142.91 -74.59 M122.92 -50.08 C129.41 -55.67, 133.94 -61.43, 144.25 -72.93" stroke="#000000" stroke-width="1" fill="none"></path></g><g transform="translate(150.17809582383535 142.75911321451622) rotate(0 72.52350948920147 -36.89233200923918)"><path d="M115.2 -67.82 C124.51 -70.56, 134.84 -72.99, 142.91 -74.59 M113.76 -68.45 C122.58 -69.61, 129.31 -70.98, 144.25 -72.93" stroke="#000000" stroke-width="1" fill="none"></path></g></g><mask></mask><g stroke-linecap="round" transform="translate(298.29093863783186 12.180810013673408) rotate(0 153.11578581427293 120.90149890274753)"><path d="M32 0 M32 0 C107.96 -1.45, 182.98 -0.8, 274.23 0 M32 0 C88.85 -0.56, 147.43 -0.38, 274.23 0 M274.23 0 C296.66 1.94, 305.47 9.59, 306.23 32 M274.23 0 C293.68 0.78, 308.38 11.7, 306.23 32 M306.23 32 C307.4 76.29, 309.26 121.36, 306.23 209.8 M306.23 32 C307.84 71.07, 306.58 108.94, 306.23 209.8 M306.23 209.8 C307.34 229.92, 294.05 243.08, 274.23 241.8 M306.23 209.8 C308.15 230.03, 295.68 240.81, 274.23 241.8 M274.23 241.8 C194.37 242.37, 110.74 241.58, 32 241.8 M274.23 241.8 C191.01 239.45, 109.63 240.42, 32 241.8 M32 241.8 C10.33 242.25, 0.55 230.29, 0 209.8 M32 241.8 C9.55 240.82, 1.25 230.39, 0 209.8 M0 209.8 C-0.43 157.93, 0.29 103.01, 0 32 M0 209.8 C0.47 149.63, -0.43 90.5, 0 32 M0 32 C-0.59 12.56, 9.84 -1.41, 32 0 M0 32 C1.6 9.48, 12.05 -2.04, 32 0" stroke="#000000" stroke-width="1" fill="none"></path></g><g stroke-linecap="round"><g transform="translate(401.9862190651777 11.094985492993146) rotate(0 -0.4925680152717291 119.97984536092301)"><path d="M-0.41 -0.03 C-0.91 40.16, -2.24 201.04, -2.56 241.05 M1.57 -1.09 C1.43 38.77, 0.61 198.98, -0.2 239.37" stroke="#000000" stroke-width="1" fill="none"></path></g></g><mask></mask><g stroke-linecap="round"><g transform="translate(299.3917521859871 42.99936238835119) rotate(0 150.52828479897977 0.6209456893627561)"><path d="M-0.96 1.08 C49.42 0.93, 251.53 -0.05, 302.02 -0.15 M0.73 0.61 C51.02 0.58, 251.22 1.68, 301.33 1.31" stroke="#000000" stroke-width="1" fill="none"></path></g></g><mask></mask><g transform="translate(320.0357607653364 26.61572212501062) rotate(0 41.50000000000003 10)"><text x="0" y="14" font-family="Virgil, Segoe UI Emoji" font-size="16px" fill="#000000" text-anchor="start" style="white-space: pre;" direction="ltr">Contactos</text></g><g stroke-linecap="round"><g transform="translate(512.0875981550407 11.720561510549203) rotate(0 0.661585979780682 15.922218192780349)"><path d="M-0.35 0.27 C-0.11 5.76, 0.5 27.15, 0.92 32.47 M1.67 -0.63 C1.76 4.6, -0.23 25.82, -0.21 30.98" stroke="#000000" stroke-width="1" fill="none"></path></g></g><mask></mask><g transform="translate(425.13253171475105 20.985537967006252) rotate(0 20 10)"><text x="0" y="14" font-family="Virgil, Segoe UI Emoji" font-size="16px" fill="#000000" text-anchor="start" style="white-space: pre;" direction="ltr">Chat</text></g><g transform="translate(540.2385189450624 22.862266019674365) rotate(0 19 10)"><text x="0" y="14" font-family="Virgil, Segoe UI Emoji" font-size="16px" fill="#000000" text-anchor="start" style="white-space: pre;" direction="ltr">User</text></g><g stroke-linecap="round"><g transform="translate(402.6117950827337 206.90027898803368) rotate(0 100.0545166927426 0.6680582451396333)"><path d="M0.62 1.13 C33.96 1.39, 167.33 1.73, 200.62 1.63 M-0.51 0.67 C32.72 0.56, 166.81 -0.42, 200.22 -0.3" stroke="#000000" stroke-width="1" fill="none"></path></g></g><mask></mask><g stroke-linecap="round" transform="translate(572.7684718579766 215.6583432338182) rotate(0 11.573156324786737 12.198732342342765)"><path d="M15 3.25 M15 3.25 C16.04 4.92, 18.09 6.33, 20.15 9.75 M15 3.25 C16.25 4.74, 17.03 6.34, 20.15 9.75 M20.15 9.75 C24.73 14.34, 24.14 13.23, 20.15 16.25 M20.15 9.75 C24.36 11.62, 23.26 11.78, 20.15 16.25 M20.15 16.25 C17.54 17.72, 16.72 19.54, 15 21.15 M20.15 16.25 C18.29 17.48, 17.15 19.48, 15 21.15 M15 21.15 C13.27 24.76, 10.33 22.4, 9 21.15 M15 21.15 C13.07 23, 11.84 22.74, 9 21.15 M9 21.15 C7.62 19.6, 4.82 18.51, 3 16.25 M9 21.15 C7.2 19.93, 5.89 18.07, 3 16.25 M3 16.25 C-0.96 13.59, -1.37 12.41, 3 9.75 M3 16.25 C0.47 13.66, 0.16 11.08, 3 9.75 M3 9.75 C4.02 6.94, 6.82 6.13, 9 3.25 M3 9.75 C5.13 7.85, 7.36 4.64, 9 3.25 M9 3.25 C10.82 -1.52, 11.85 0.08, 15 3.25 M9 3.25 C11.54 2.04, 13.65 -1.56, 15 3.25" stroke="#000000" stroke-width="1" fill="none"></path></g><g transform="translate(415.1233154338545 219.91871154982692) rotate(0 75.5 10)"><text x="0" y="14" font-family="Virgil, Segoe UI Emoji" font-size="16px" fill="#000000" text-anchor="start" style="white-space: pre;" direction="ltr">Escribe tu mensaje</text></g><g stroke-linecap="round"><g transform="translate(298.76617616843106 69.27355512570489) rotate(0 51.099220770423756 0.4070623180415822)"><path d="M-0.75 0.67 C16.17 1.05, 83.53 1.11, 100.62 1.29 M1.05 -0.03 C18.44 0.1, 86.25 -0.49, 102.95 -0.48" stroke="#000000" stroke-width="1" fill="none"></path></g></g><mask></mask><g stroke-linecap="round"><g transform="translate(298.14060015087506 91.7942917577223) rotate(0 51.06643477590336 1.6166200346664823)"><path d="M-0.75 1.08 C16.39 1.37, 85.56 2.44, 102.88 2.65 M1.06 0.61 C18 0.47, 84.87 0.99, 101.75 0.93" stroke="#000000" stroke-width="1" fill="none"></path></g></g><mask></mask><g stroke-linecap="round"><g transform="translate(298.3386128200466 120.78930226481458) rotate(0 50.2574113386157 -0.16162613669007442)"><path d="M-1.03 0.19 C15.74 0.09, 84.3 -0.66, 101.54 -0.51 M0.63 -0.75 C17.18 -0.76, 83.77 0.47, 100.7 0.43" stroke="#000000" stroke-width="1" fill="none"></path></g></g><mask></mask><g stroke-linecap="round"><g transform="translate(298.33861282004654 145.1867669495001) rotate(0 49.950460981552936 0.2177977059880618)"><path d="M0.07 -0.03 C16.82 0.08, 84.42 -0.03, 101.26 0.21 M-1.36 -1.09 C15.16 -0.78, 83.34 1.43, 100.26 1.52" stroke="#000000" stroke-width="1" fill="none"></path></g></g><mask></mask><g stroke-linecap="round"><g transform="translate(298.9641888376026 173.96326375707804) rotate(0 50.53806730104006 0.06993557518731564)"><path d="M0.84 -1.12 C17.8 -0.97, 84.42 -0.49, 101.26 -0.03 M-0.18 0.9 C16.67 1.29, 83.33 1.35, 100.27 1.16" stroke="#000000" stroke-width="1" fill="none"></path></g></g><mask></mask><g stroke-linecap="round"><g transform="translate(298.33861282004654 197.10957640665146) rotate(0 49.97917750053435 -0.5061950535973097)"><path d="M-1.17 -0.46 C15.65 -0.52, 84.14 -0.3, 101.13 -0.31 M0.42 -1.74 C17.05 -1.7, 83.53 0.41, 100.07 0.73" stroke="#000000" stroke-width="1" fill="none"></path></g></g><mask></mask><g stroke-linecap="round"><g transform="translate(296.46188476737836 219.63031303866882) rotate(0 50.692066020410095 0.3520563112397497)"><path d="M-0.98 0.81 C15.62 0.82, 83.11 -0.01, 100.24 -0.2 M0.7 0.19 C17.6 0.35, 85.62 0.85, 102.37 0.9" stroke="#000000" stroke-width="1" fill="none"></path></g></g><mask></mask><g transform="translate(235.58299839527103 271.33460879630576) rotate(0 0.00004999999998744897 0.00004999999998744897)" stroke="none"><path fill="#000000" d="M 1.57,-1.57 Q 1.57,-1.57 1.77,-1.27 1.98,-0.98 2.09,-0.64 2.20,-0.29 2.19,0.05 2.18,0.41 2.05,0.75 1.93,1.09 1.70,1.37 1.48,1.65 1.18,1.84 0.87,2.04 0.52,2.12 0.18,2.21 -0.17,2.18 -0.53,2.15 -0.86,2.01 -1.19,1.87 -1.46,1.63 -1.73,1.39 -1.90,1.07 -2.08,0.76 -2.15,0.41 -2.21,0.05 -2.17,-0.29 -2.12,-0.65 -1.96,-0.97 -1.80,-1.29 -1.54,-1.54 -1.29,-1.80 -0.97,-1.96 -0.65,-2.12 -0.29,-2.17 0.06,-2.21 0.41,-2.15 0.76,-2.08 1.07,-1.90 1.39,-1.73 1.63,-1.46 1.87,-1.19 2.01,-0.86 2.15,-0.53 2.18,-0.17 2.21,0.18 2.12,0.52 2.03,0.87 1.84,1.18 1.65,1.48 1.37,1.70 1.09,1.93 0.75,2.05 0.41,2.18 0.05,2.19 -0.30,2.20 -0.64,2.09 -0.98,1.98 -1.27,1.77 -1.57,1.56 -1.57,1.57 -1.57,1.57 -1.73,1.35 -1.90,1.14 -2.01,0.90 -2.12,0.66 -2.16,0.39 -2.21,0.13 -2.20,-0.13 -2.18,-0.40 -2.10,-0.65 -2.02,-0.91 -1.88,-1.14 -1.74,-1.36 -1.55,-1.55 -1.36,-1.74 -1.14,-1.88 -0.91,-2.02 -0.65,-2.10 -0.40,-2.18 -0.13,-2.20 0.13,-2.21 0.39,-2.16 0.66,-2.12 0.90,-2.01 1.14,-1.90 1.35,-1.73 1.57,-1.57 1.57,-1.57 L 1.57,-1.57 Z"></path></g><g stroke-opacity="0.8" fill-opacity="0.8" transform="translate(320.6613367828925 56.13645875702804) rotate(0 27.525344772465758 -0.31278800877802837)" stroke="none"><path fill="#000000" d="M 0,-2.59 Q 0,-2.59 1.25,-2.60 2.51,-2.61 3.59,-2.64 4.67,-2.67 5.90,-2.49 7.14,-2.32 9.63,-2.03 12.12,-1.74 14.12,-1.66 16.11,-1.58 17.20,-1.76 18.28,-1.93 19.17,-2.57 20.06,-3.20 21.05,-3.69 22.04,-4.19 23.38,-4.88 24.72,-5.56 25.99,-5.40 27.26,-5.24 29.21,-4.41 31.16,-3.59 33.25,-2.90 35.34,-2.22 36.42,-1.87 37.50,-1.53 38.93,-1.41 40.36,-1.30 41.62,-1.30 42.87,-1.30 44.12,-1.33 45.37,-1.35 47.41,-1.32 49.46,-1.28 50.52,-1.27 51.59,-1.26 52.13,-1.05 52.66,-0.83 53.06,-1.16 53.46,-1.48 53.93,-1.66 54.41,-1.85 54.92,-1.87 55.44,-1.89 55.93,-1.74 56.42,-1.60 56.84,-1.30 57.26,-1.01 57.56,-0.60 57.87,-0.18 58.02,0.29 58.18,0.78 58.17,1.29 58.16,1.81 57.99,2.29 57.82,2.77 57.50,3.17 57.19,3.58 56.76,3.86 56.33,4.14 55.84,4.27 55.34,4.40 54.83,4.36 54.32,4.33 53.84,4.13 53.37,3.93 52.99,3.60 52.60,3.26 52.34,2.82 52.09,2.37 51.98,1.87 51.88,1.37 51.95,0.86 52.01,0.35 52.23,-0.10 52.45,-0.56 52.81,-0.93 53.17,-1.29 53.63,-1.53 54.08,-1.76 54.59,-1.83 55.09,-1.91 55.60,-1.82 56.10,-1.73 56.55,-1.48 57.00,-1.23 57.35,-0.86 57.69,-0.48 57.90,-0.01 58.11,0.45 58.16,0.96 58.20,1.47 58.09,1.97 57.97,2.46 57.70,2.90 57.43,3.33 57.43,3.33 57.43,3.33 54.51,4.17 51.59,5.02 50.52,5.03 49.45,5.04 48.21,5.07 46.97,5.11 45.52,5.09 44.07,5.06 42.74,5.02 41.40,4.97 39.77,4.84 38.15,4.71 36.93,4.52 35.70,4.33 34.68,4.02 33.66,3.71 32.38,3.38 31.10,3.05 29.78,2.63 28.45,2.22 27.29,1.19 26.14,0.17 24.48,1.26 22.81,2.35 21.25,3.02 19.69,3.70 17.79,3.84 15.90,3.97 14.82,3.91 13.75,3.85 12.52,3.73 11.30,3.61 10.03,3.43 8.76,3.25 6.71,2.96 4.65,2.67 3.58,2.64 2.51,2.61 1.25,2.60 0,2.59 -0.31,2.55 -0.62,2.52 -0.91,2.41 -1.20,2.30 -1.46,2.12 -1.72,1.94 -1.93,1.70 -2.13,1.47 -2.28,1.19 -2.42,0.92 -2.50,0.61 -2.57,0.31 -2.57,-0.00 -2.57,-0.31 -2.50,-0.61 -2.42,-0.92 -2.28,-1.19 -2.13,-1.47 -1.93,-1.71 -1.72,-1.94 -1.46,-2.12 -1.20,-2.30 -0.91,-2.41 -0.62,-2.52 -0.31,-2.55 0.00,-2.59 0.00,-2.59 L 0,-2.59 Z"></path></g><g stroke-opacity="0.8" fill-opacity="0.8" transform="translate(331.29612908134516 81.78507547682568) rotate(0 21.26958459690536 0)" stroke="none"><path fill="#000000" d="M 1.16,-2.33 Q 1.16,-2.33 2.24,-1.81 3.32,-1.29 5.08,-0.92 6.83,-0.55 8.56,-0.46 10.28,-0.38 11.58,-1.09 12.88,-1.79 14.22,-2.71 15.55,-3.62 16.62,-4.34 17.69,-5.07 19.09,-5.30 20.50,-5.54 21.54,-5.27 22.58,-5.00 23.48,-4.36 24.38,-3.72 25.36,-3.28 26.35,-2.83 27.70,-2.52 29.05,-2.21 30.27,-2.15 31.49,-2.08 32.76,-2.10 34.03,-2.12 35.70,-2.24 37.37,-2.36 39.77,-2.83 42.17,-3.31 42.71,-3.28 43.25,-3.25 43.75,-3.05 44.25,-2.85 44.66,-2.51 45.07,-2.16 45.35,-1.70 45.63,-1.23 45.75,-0.71 45.86,-0.18 45.81,0.35 45.75,0.88 45.52,1.37 45.30,1.86 44.93,2.25 44.56,2.65 44.08,2.90 43.60,3.15 43.07,3.24 42.54,3.33 42.01,3.24 41.47,3.16 41.00,2.90 40.52,2.65 40.15,2.26 39.78,1.87 39.55,1.38 39.32,0.89 39.26,0.35 39.20,-0.17 39.32,-0.70 39.43,-1.23 39.71,-1.69 39.99,-2.15 40.40,-2.50 40.81,-2.85 41.31,-3.05 41.81,-3.25 42.35,-3.28 42.89,-3.31 43.41,-3.17 43.93,-3.02 44.38,-2.72 44.82,-2.42 45.15,-1.99 45.48,-1.56 45.65,-1.05 45.82,-0.54 45.82,-0.00 45.83,0.53 45.65,1.04 45.48,1.55 45.16,1.98 44.83,2.41 44.38,2.72 43.94,3.02 43.42,3.16 42.90,3.31 42.90,3.31 42.90,3.31 40.74,3.72 38.58,4.14 37.31,4.36 36.05,4.58 34.34,4.59 32.63,4.60 31.45,4.53 30.27,4.45 28.77,4.23 27.27,4.00 25.57,3.55 23.86,3.09 22.85,2.64 21.84,2.19 20.93,1.26 20.02,0.33 18.80,1.19 17.59,2.05 16.55,2.67 15.52,3.28 14.34,3.86 13.16,4.45 11.66,4.84 10.16,5.23 8.90,5.17 7.63,5.11 5.59,4.64 3.54,4.17 2.27,3.81 0.99,3.45 -0.08,2.89 -1.16,2.33 -1.43,2.16 -1.69,1.99 -1.90,1.76 -2.12,1.52 -2.27,1.25 -2.42,0.97 -2.50,0.67 -2.59,0.36 -2.59,0.05 -2.60,-0.26 -2.53,-0.57 -2.46,-0.87 -2.32,-1.16 -2.18,-1.44 -1.97,-1.68 -1.77,-1.92 -1.51,-2.10 -1.26,-2.29 -0.96,-2.40 -0.67,-2.52 -0.36,-2.57 -0.05,-2.61 0.26,-2.58 0.57,-2.55 0.87,-2.44 1.17,-2.33 1.17,-2.33 L 1.16,-2.33 Z"></path></g><g stroke-opacity="0.8" fill-opacity="0.8" transform="translate(326.2915209408968 107.4336921966233) rotate(0 25.648616719797644 2.1895160614461417)" stroke="none"><path fill="#000000" d="M 0.46,-2.31 Q 0.46,-2.31 2.24,-1.89 4.03,-1.47 5.80,-0.90 7.56,-0.33 9.11,0.05 10.66,0.43 12.06,0.98 13.46,1.53 15.18,1.65 16.90,1.78 17.97,1.63 19.05,1.48 20.30,1.11 21.56,0.75 22.92,0.38 24.27,0.01 25.34,-0.33 26.40,-0.68 28.07,-1.35 29.74,-2.02 30.95,-2.36 32.16,-2.71 33.64,-2.81 35.11,-2.92 36.86,-2.74 38.62,-2.56 39.79,-2.55 40.96,-2.54 42.01,-2.31 43.05,-2.08 44.38,-2.04 45.72,-1.99 48.58,-1.68 51.43,-1.36 51.94,-1.25 52.46,-1.15 52.91,-0.88 53.36,-0.62 53.71,-0.22 54.05,0.16 54.25,0.65 54.45,1.14 54.49,1.66 54.52,2.18 54.39,2.69 54.25,3.20 53.97,3.64 53.68,4.08 53.26,4.40 52.85,4.72 52.35,4.89 51.86,5.07 51.33,5.07 50.81,5.08 50.31,4.92 49.81,4.76 49.38,4.45 48.96,4.13 48.66,3.70 48.36,3.27 48.22,2.77 48.07,2.26 48.09,1.74 48.11,1.21 48.30,0.72 48.49,0.23 48.83,-0.16 49.16,-0.57 49.61,-0.84 50.05,-1.12 50.57,-1.24 51.08,-1.36 51.60,-1.31 52.12,-1.26 52.60,-1.04 53.08,-0.83 53.47,-0.47 53.85,-0.11 54.10,0.34 54.36,0.80 54.45,1.32 54.54,1.83 54.46,2.35 54.38,2.87 54.14,3.34 53.90,3.81 53.52,4.17 53.15,4.54 52.67,4.76 52.20,4.99 51.68,5.05 51.16,5.11 51.16,5.11 51.16,5.12 49.07,4.78 46.99,4.44 45.25,4.38 43.52,4.31 42.15,4.03 40.79,3.75 39.51,3.65 38.23,3.55 36.71,3.25 35.19,2.95 33.82,2.91 32.46,2.87 31.20,3.22 29.94,3.58 28.90,3.87 27.86,4.17 26.71,4.48 25.55,4.79 24.23,5.14 22.91,5.48 21.25,5.96 19.58,6.43 18.01,6.56 16.45,6.68 15.33,6.52 14.21,6.35 12.95,6.00 11.69,5.66 10.65,5.15 9.61,4.64 7.94,4.23 6.28,3.82 4.72,3.36 3.15,2.91 1.34,2.61 -0.46,2.31 -0.73,2.22 -1.00,2.13 -1.24,1.98 -1.48,1.83 -1.68,1.62 -1.87,1.42 -2.02,1.17 -2.16,0.93 -2.24,0.66 -2.32,0.38 -2.33,0.10 -2.35,-0.18 -2.29,-0.45 -2.23,-0.73 -2.11,-0.99 -1.99,-1.25 -1.81,-1.47 -1.64,-1.69 -1.41,-1.86 -1.18,-2.03 -0.92,-2.15 -0.66,-2.26 -0.38,-2.30 -0.10,-2.35 0.17,-2.33 0.46,-2.31 0.46,-2.31 L 0.46,-2.31 Z"></path></g><g stroke-opacity="0.8" fill-opacity="0.8" transform="translate(327.54267297600893 136.83576502175714) rotate(0 25.961404728575644 -3.4406680965581984)" stroke="none"><path fill="#000000" d="M -0.24,-2.48 Q -0.24,-2.48 1.55,-2.59 3.36,-2.70 5.08,-2.76 6.80,-2.81 7.98,-3.17 9.16,-3.53 10.64,-3.76 12.12,-3.98 13.15,-4.51 14.18,-5.03 14.88,-6.31 15.57,-7.58 16.92,-8.30 18.27,-9.03 20.29,-9.46 22.31,-9.89 24.04,-9.46 25.76,-9.03 27.75,-7.91 29.74,-6.80 31.36,-6.21 32.99,-5.63 34.46,-4.98 35.94,-4.34 37.34,-4.17 38.75,-4.01 39.92,-4.43 41.10,-4.85 42.69,-5.24 44.28,-5.62 45.68,-5.86 47.08,-6.09 49.49,-6.17 51.90,-6.24 52.40,-6.17 52.90,-6.09 53.35,-5.85 53.79,-5.62 54.14,-5.25 54.49,-4.89 54.71,-4.43 54.92,-3.97 54.98,-3.47 55.04,-2.97 54.93,-2.48 54.82,-1.98 54.56,-1.55 54.31,-1.11 53.92,-0.79 53.54,-0.46 53.07,-0.27 52.60,-0.08 52.10,-0.05 51.60,-0.02 51.11,-0.15 50.62,-0.28 50.20,-0.56 49.78,-0.85 49.47,-1.25 49.17,-1.65 49.00,-2.13 48.84,-2.60 48.84,-3.11 48.84,-3.61 48.99,-4.09 49.15,-4.57 49.46,-4.98 49.76,-5.38 50.18,-5.66 50.59,-5.95 51.08,-6.09 51.57,-6.22 52.07,-6.20 52.57,-6.17 53.04,-5.99 53.51,-5.81 53.90,-5.48 54.29,-5.15 54.55,-4.72 54.81,-4.29 54.92,-3.80 55.03,-3.31 54.98,-2.80 54.93,-2.30 54.72,-1.84 54.51,-1.38 54.16,-1.02 53.82,-0.65 53.37,-0.41 52.93,-0.17 52.43,-0.09 51.93,-0.00 51.93,-0.00 51.93,-0.00 49.28,-0.02 46.63,-0.04 45.19,0.23 43.75,0.51 42.22,0.79 40.69,1.07 38.78,1.11 36.87,1.15 35.41,0.62 33.96,0.08 32.78,-0.44 31.60,-0.98 29.53,-1.49 27.46,-2.01 25.83,-2.62 24.20,-3.24 22.67,-3.63 21.13,-4.03 19.95,-3.20 18.77,-2.38 17.56,-1.37 16.34,-0.37 14.54,0.17 12.73,0.72 11.56,0.83 10.39,0.94 8.71,1.36 7.04,1.78 5.43,1.88 3.83,1.98 2.04,2.23 0.24,2.48 -0.05,2.48 -0.35,2.47 -0.64,2.39 -0.93,2.32 -1.20,2.17 -1.46,2.02 -1.68,1.82 -1.90,1.61 -2.07,1.36 -2.23,1.11 -2.34,0.83 -2.44,0.54 -2.47,0.24 -2.50,-0.05 -2.45,-0.35 -2.41,-0.65 -2.30,-0.92 -2.19,-1.20 -2.01,-1.45 -1.83,-1.69 -1.60,-1.89 -1.37,-2.08 -1.10,-2.22 -0.83,-2.35 -0.54,-2.42 -0.24,-2.48 -0.24,-2.48 L -0.24,-2.48 Z"></path></g><g stroke-opacity="0.8" fill-opacity="0.8" transform="translate(333.17285713401327 163.7355337766669) rotate(0 22.520736632017446 -4.3790321228922835)" stroke="none"><path fill="#000000" d="M -0.29,-2.34 Q -0.29,-2.34 1.14,-2.53 2.58,-2.71 4.04,-2.96 5.50,-3.20 7.02,-3.48 8.54,-3.75 9.97,-4.18 11.40,-4.61 13.05,-5.25 14.71,-5.89 15.80,-6.66 16.90,-7.44 17.69,-8.15 18.49,-8.86 19.64,-9.78 20.79,-10.71 21.94,-10.78 23.08,-10.86 24.57,-10.23 26.06,-9.60 27.74,-9.20 29.43,-8.80 30.82,-8.46 32.22,-8.12 33.56,-7.97 34.90,-7.83 36.03,-7.79 37.16,-7.75 38.28,-7.79 39.40,-7.83 41.69,-9.09 43.99,-10.34 44.47,-10.44 44.95,-10.53 45.44,-10.46 45.92,-10.40 46.36,-10.18 46.80,-9.96 47.15,-9.62 47.49,-9.27 47.71,-8.83 47.93,-8.39 48.00,-7.91 48.06,-7.42 47.97,-6.94 47.88,-6.46 47.64,-6.03 47.40,-5.61 47.03,-5.28 46.67,-4.95 46.22,-4.76 45.77,-4.56 45.28,-4.52 44.79,-4.48 44.32,-4.60 43.84,-4.72 43.43,-4.98 43.02,-5.25 42.71,-5.63 42.40,-6.01 42.23,-6.47 42.06,-6.93 42.05,-7.42 42.04,-7.91 42.18,-8.38 42.32,-8.84 42.61,-9.24 42.89,-9.64 43.29,-9.93 43.69,-10.21 44.16,-10.36 44.63,-10.50 45.11,-10.49 45.60,-10.48 46.06,-10.31 46.52,-10.14 46.91,-9.83 47.29,-9.53 47.55,-9.11 47.82,-8.70 47.94,-8.23 48.05,-7.75 48.02,-7.26 47.98,-6.77 47.78,-6.32 47.59,-5.87 47.26,-5.51 46.94,-5.14 46.51,-4.90 46.08,-4.66 46.08,-4.66 46.08,-4.66 44.27,-3.66 42.46,-2.67 40.87,-2.43 39.27,-2.20 38.09,-2.31 36.90,-2.42 35.67,-2.49 34.43,-2.57 32.74,-2.70 31.06,-2.82 29.56,-3.12 28.06,-3.41 26.62,-3.77 25.18,-4.12 23.28,-4.69 21.37,-5.26 20.36,-4.52 19.35,-3.79 17.89,-2.85 16.42,-1.91 14.60,-1.06 12.77,-0.21 11.09,0.32 9.41,0.85 7.85,1.15 6.29,1.46 4.73,1.73 3.17,2.00 1.73,2.17 0.29,2.34 0.00,2.34 -0.27,2.34 -0.55,2.27 -0.83,2.21 -1.08,2.08 -1.33,1.94 -1.54,1.76 -1.76,1.57 -1.92,1.33 -2.08,1.10 -2.19,0.83 -2.29,0.57 -2.32,0.29 -2.36,0.00 -2.32,-0.27 -2.29,-0.55 -2.19,-0.82 -2.09,-1.09 -1.93,-1.32 -1.77,-1.56 -1.56,-1.75 -1.34,-1.93 -1.09,-2.07 -0.84,-2.20 -0.56,-2.27 -0.29,-2.34 -0.29,-2.34 L -0.29,-2.34 Z"></path></g><g stroke-opacity="0.8" fill-opacity="0.8" transform="translate(335.0495851866814 185.00511837357226) rotate(0 20.018432561793276 -1.251152035112085)" stroke="none"><path fill="#000000" d="M 0,-2.33 Q 0,-2.33 1.61,-2.32 3.23,-2.30 4.64,-2.32 6.05,-2.34 7.72,-2.31 9.40,-2.28 11.37,-2.20 13.35,-2.11 15.26,-2.06 17.18,-2.00 18.35,-2.07 19.53,-2.14 21.26,-2.70 22.98,-3.26 23.94,-3.76 24.90,-4.25 26.28,-4.45 27.66,-4.64 28.88,-4.65 30.11,-4.66 31.83,-4.96 33.56,-5.26 34.77,-5.37 35.97,-5.48 38.00,-5.51 40.02,-5.54 40.51,-5.46 40.99,-5.38 41.43,-5.15 41.87,-4.92 42.20,-4.57 42.54,-4.21 42.75,-3.76 42.96,-3.32 43.01,-2.83 43.07,-2.34 42.96,-1.86 42.86,-1.38 42.61,-0.96 42.35,-0.54 41.98,-0.22 41.61,0.09 41.15,0.28 40.69,0.46 40.20,0.49 39.71,0.52 39.24,0.39 38.76,0.26 38.35,-0.01 37.95,-0.28 37.65,-0.68 37.35,-1.07 37.19,-1.53 37.03,-2.00 37.03,-2.49 37.03,-2.98 37.19,-3.45 37.34,-3.91 37.64,-4.31 37.94,-4.70 38.34,-4.98 38.75,-5.25 39.22,-5.39 39.70,-5.52 40.19,-5.49 40.68,-5.47 41.14,-5.29 41.59,-5.11 41.97,-4.79 42.34,-4.47 42.60,-4.05 42.85,-3.63 42.96,-3.15 43.07,-2.67 43.02,-2.18 42.96,-1.69 42.76,-1.24 42.55,-0.80 42.21,-0.44 41.88,-0.08 41.44,0.14 41.01,0.37 40.52,0.45 40.04,0.53 40.04,0.53 40.04,0.53 37.55,0.51 35.07,0.48 33.89,0.52 32.72,0.56 31.44,0.75 30.16,0.94 28.06,0.90 25.96,0.86 24.32,1.36 22.68,1.87 21.10,2.00 19.53,2.14 18.35,2.07 17.18,2.00 15.26,2.06 13.35,2.11 11.37,2.20 9.40,2.28 7.72,2.31 6.05,2.34 4.64,2.32 3.23,2.30 1.61,2.32 0,2.33 -0.27,2.30 -0.55,2.26 -0.82,2.16 -1.08,2.06 -1.31,1.90 -1.54,1.74 -1.73,1.53 -1.92,1.32 -2.05,1.07 -2.18,0.82 -2.25,0.55 -2.32,0.28 -2.32,-0.00 -2.32,-0.28 -2.25,-0.55 -2.18,-0.82 -2.05,-1.07 -1.92,-1.32 -1.73,-1.53 -1.54,-1.74 -1.31,-1.90 -1.08,-2.06 -0.82,-2.16 -0.55,-2.26 -0.27,-2.30 0.00,-2.33 0.00,-2.33 L 0,-2.33 Z"></path></g><g stroke-opacity="0.8" fill-opacity="0.8" transform="translate(340.0541933271297 207.52585500558968) rotate(0 15.326612430122964 1.251152035112085)" stroke="none"><path fill="#000000" d="M 0.59,-2.36 Q 0.59,-2.36 2.02,-2.00 3.46,-1.64 4.94,-1.30 6.41,-0.96 7.97,-0.80 9.53,-0.64 11.10,-0.56 12.68,-0.49 14.07,-0.49 15.47,-0.48 17.10,-0.55 18.74,-0.63 19.76,-1.00 20.78,-1.37 21.87,-1.21 22.95,-1.05 24.15,-1.09 25.34,-1.13 27.69,-0.83 30.03,-0.54 30.40,-0.49 30.76,-0.44 31.10,-0.31 31.44,-0.18 31.75,0.02 32.05,0.23 32.29,0.50 32.53,0.78 32.70,1.10 32.87,1.43 32.96,1.78 33.04,2.14 33.04,2.51 33.04,2.87 32.95,3.23 32.86,3.58 32.69,3.91 32.52,4.23 32.28,4.51 32.03,4.78 31.73,4.99 31.43,5.20 31.09,5.32 30.74,5.45 30.38,5.50 30.01,5.54 31.08,5.11 32.14,4.68 31.74,4.96 31.33,5.24 30.86,5.38 30.39,5.52 29.90,5.50 29.40,5.48 28.94,5.30 28.49,5.12 28.11,4.81 27.73,4.49 27.47,4.08 27.21,3.66 27.10,3.18 26.99,2.70 27.03,2.21 27.08,1.72 27.28,1.27 27.48,0.82 27.82,0.46 28.15,0.10 28.58,-0.13 29.02,-0.36 29.50,-0.45 29.99,-0.54 30.47,-0.46 30.96,-0.39 31.40,-0.16 31.84,0.05 32.18,0.41 32.52,0.76 32.73,1.20 32.94,1.65 33.00,2.14 33.06,2.63 32.96,3.11 32.86,3.59 32.61,4.01 32.36,4.44 31.99,4.76 31.62,5.09 31.17,5.27 30.71,5.46 30.22,5.49 29.73,5.53 29.25,5.40 28.78,5.27 28.37,5.00 27.96,4.73 27.65,4.34 27.35,3.95 27.19,3.49 27.03,3.02 27.02,2.53 27.01,2.04 27.17,1.57 27.32,1.10 28.67,0.28 30.03,-0.54 30.39,-0.49 30.76,-0.45 31.10,-0.31 31.44,-0.18 31.75,0.02 32.05,0.23 32.29,0.50 32.53,0.78 32.70,1.10 32.87,1.43 32.96,1.78 33.04,2.14 33.04,2.51 33.04,2.87 32.95,3.23 32.86,3.58 32.69,3.91 32.52,4.23 32.28,4.51 32.03,4.78 31.73,4.99 31.43,5.20 31.09,5.32 30.74,5.45 30.38,5.50 30.01,5.54 28.47,5.22 26.93,4.91 25.45,4.86 23.97,4.80 22.70,4.67 21.43,4.55 20.22,4.46 19.02,4.37 17.20,4.26 15.38,4.16 13.95,4.11 12.51,4.07 10.83,4.02 9.15,3.97 7.26,3.85 5.38,3.73 3.83,3.40 2.28,3.07 0.84,2.72 -0.59,2.36 -0.86,2.26 -1.14,2.15 -1.38,1.98 -1.62,1.82 -1.81,1.60 -2.01,1.37 -2.14,1.11 -2.28,0.85 -2.35,0.57 -2.42,0.28 -2.42,-0.00 -2.42,-0.30 -2.35,-0.58 -2.27,-0.87 -2.14,-1.13 -2.00,-1.39 -1.80,-1.61 -1.61,-1.83 -1.36,-1.99 -1.12,-2.16 -0.85,-2.26 -0.57,-2.37 -0.28,-2.40 0.00,-2.44 0.30,-2.40 0.59,-2.36 0.59,-2.36 L 0.59,-2.36 Z"></path></g><g stroke-opacity="0.8" fill-opacity="0.8" stroke-linecap="round" transform="translate(411.99543534607426 55.51088273947198) rotate(0 35.03225698313827 11.885944333564765)"><path d="M5.94 0 M5.94 0 C23.26 1.39, 44.16 0.07, 64.12 0 M5.94 0 C25.39 0.77, 42.58 0.4, 64.12 0 M64.12 0 C69.45 -0.31, 71.57 3.95, 70.06 5.94 M64.12 0 C70.26 1.51, 70.9 4.03, 70.06 5.94 M70.06 5.94 C69.73 8.95, 69.38 13.48, 70.06 17.83 M70.06 5.94 C69.63 10.07, 69.67 12.92, 70.06 17.83 M70.06 17.83 C68.62 22.68, 67.49 23.03, 64.12 23.77 M70.06 17.83 C69.46 19.69, 65.95 23.36, 64.12 23.77 M64.12 23.77 C43.16 21.7, 19.76 23.48, 5.94 23.77 M64.12 23.77 C46.07 24.42, 27.96 24.78, 5.94 23.77 M5.94 23.77 C0.29 24.19, -1.62 20.43, 0 17.83 M5.94 23.77 C3.67 25.05, -1.68 22.19, 0 17.83 M0 17.83 C-0.55 14.58, 0.39 9.19, 0 5.94 M0 17.83 C-0.22 14.72, -0.25 10.96, 0 5.94 M0 5.94 C-1.48 3.15, 3.17 -1.51, 5.94 0 M0 5.94 C0.34 2.2, 0.58 -0.17, 5.94 0" stroke="#000000" stroke-width="1" fill="none"></path></g><g stroke-opacity="0.8" fill-opacity="0.8" stroke-linecap="round" transform="translate(513.9643262077088 85.53853158216191) rotate(0 40.97522914992061 11.260368316008723)"><path d="M5.63 0 M5.63 0 C28.15 0.31, 54.43 -0.49, 76.32 0 M5.63 0 C23.1 -0.44, 40.36 -0.63, 76.32 0 M76.32 0 C80.49 -1.62, 80.59 3.35, 81.95 5.63 M76.32 0 C81.35 -1.68, 82.35 2.83, 81.95 5.63 M81.95 5.63 C82.82 9.28, 81.56 11.82, 81.95 16.89 M81.95 5.63 C82.07 8.2, 81.51 10.92, 81.95 16.89 M81.95 16.89 C83.12 21.84, 78.57 22.81, 76.32 22.52 M81.95 16.89 C82.17 19.25, 79.91 21.68, 76.32 22.52 M76.32 22.52 C56.43 23.79, 37.57 22.18, 5.63 22.52 M76.32 22.52 C53.65 21.9, 30.23 23.21, 5.63 22.52 M5.63 22.52 C2.66 24.09, 0.02 20.91, 0 16.89 M5.63 22.52 C-0.01 20.95, -1.11 19.55, 0 16.89 M0 16.89 C1.08 13.03, 0.64 9.29, 0 5.63 M0 16.89 C0.27 12.36, -0.37 7.59, 0 5.63 M0 5.63 C-1.64 2.41, 1.79 -0.06, 5.63 0 M0 5.63 C-2.17 3, 2.31 0.27, 5.63 0" stroke="#000000" stroke-width="1" fill="none"></path></g><g stroke-opacity="0.8" fill-opacity="0.8" stroke-linecap="round" transform="translate(411.36985932851826 121.82194060041223) rotate(0 48.16935335181506 12.198732342342794)"><path d="M6.1 0 M6.1 0 C34.98 -1.86, 64.4 1.08, 90.24 0 M6.1 0 C36.45 -0.73, 66.54 -0.49, 90.24 0 M90.24 0 C94.03 -0.11, 98.08 2.37, 96.34 6.1 M90.24 0 C95.06 1.94, 95.24 2.53, 96.34 6.1 M96.34 6.1 C95.45 9.21, 97.05 14.36, 96.34 18.3 M96.34 6.1 C95.84 10.3, 96.04 15.04, 96.34 18.3 M96.34 18.3 C97.93 21.11, 93.32 26.19, 90.24 24.4 M96.34 18.3 C97.18 23.52, 96.26 26.54, 90.24 24.4 M90.24 24.4 C58.45 23.91, 25.81 23.28, 6.1 24.4 M90.24 24.4 C61.83 24.86, 35.5 24.49, 6.1 24.4 M6.1 24.4 C2.17 22.86, -0.06 20.93, 0 18.3 M6.1 24.4 C2.58 26.11, -0.4 22.6, 0 18.3 M0 18.3 C-0.91 12.83, 0.86 8.38, 0 6.1 M0 18.3 C-0.61 13.68, -0.46 10.56, 0 6.1 M0 6.1 C0.39 2.46, 2.02 1.74, 6.1 0 M0 6.1 C-0.02 2.95, 4.12 -1.79, 6.1 0" stroke="#000000" stroke-width="1" fill="none"></path></g><g stroke-opacity="0.8" fill-opacity="0.8" stroke-linecap="round" transform="translate(491.44358957569136 164.36110979422295) rotate(0 51.29723343959529 13.44988437745485)"><path d="M6.72 0 M6.72 0 C39.36 -2.32, 71.34 -1.28, 95.87 0 M6.72 0 C35.73 -0.56, 63.15 0.08, 95.87 0 M95.87 0 C99.39 -1.44, 100.69 0.59, 102.59 6.72 M95.87 0 C100.39 0.32, 103.28 0.18, 102.59 6.72 M102.59 6.72 C102.38 8.63, 102.53 12.51, 102.59 20.17 M102.59 6.72 C103 12.07, 102.45 17.82, 102.59 20.17 M102.59 20.17 C101.64 24.01, 100.76 26.24, 95.87 26.9 M102.59 20.17 C104 23.65, 99.6 27.57, 95.87 26.9 M95.87 26.9 C65.65 25.58, 36.7 28.64, 6.72 26.9 M95.87 26.9 C76.43 27.22, 57.07 26.56, 6.72 26.9 M6.72 26.9 C3.85 26.99, -1.1 24.17, 0 20.17 M6.72 26.9 C3.81 28.4, 1.54 26.88, 0 20.17 M0 20.17 C-1.1 16.28, -0.68 15.56, 0 6.72 M0 20.17 C-0.2 16.36, -0.38 12.03, 0 6.72 M0 6.72 C-1.92 3.99, 1.48 0.89, 6.72 0 M0 6.72 C-0.93 2.35, 1.36 -1.22, 6.72 0" stroke="#000000" stroke-width="1" fill="none"></path></g><g stroke-linecap="round"><g stroke-opacity="0.8" fill-opacity="0.8" transform="translate(138.41127797104082 227.49820616289963) rotate(0 6.482306208012517 31.117525610944426)"><path d="M0.02 -1.02 C1.96 9.62, 9.94 52.81, 12.09 63.25 M-1.44 1.06 C0.86 11.42, 12.13 51.38, 14.4 61.64" stroke="#000000" stroke-width="1" fill="none"></path></g><g stroke-opacity="0.8" fill-opacity="0.8" transform="translate(138.41127797104082 227.49820616289963) rotate(0 6.482306208012517 31.117525610944426)"><path d="M-4.2 35.56 C4.65 45.24, 7.6 52.95, 15.76 62.94 M-3.02 36.29 C3.07 45.36, 9.59 56.08, 14.54 61.65" stroke="#000000" stroke-width="1" fill="none"></path></g><g stroke-opacity="0.8" fill-opacity="0.8" transform="translate(138.41127797104082 227.49820616289963) rotate(0 6.482306208012517 31.117525610944426)"><path d="M15.68 30.49 C17.85 41.87, 14.15 51.28, 15.76 62.94 M16.87 31.22 C15.71 41.98, 14.92 54.57, 14.54 61.65" stroke="#000000" stroke-width="1" fill="none"></path></g></g><mask></mask><g stroke-linecap="round" transform="translate(73.08357231765746 296.8178980016716) rotate(0 100.56740033956555 120.9014989027475)"><path d="M32 0 M32 0 C65.55 0.07, 99.59 -2.3, 169.13 0 M32 0 C72.4 0.61, 111.02 -0.1, 169.13 0 M169.13 0 C190.28 -1.29, 202.14 11.44, 201.13 32 M169.13 0 C188.7 1.93, 200.48 9.75, 201.13 32 M201.13 32 C202.29 78.25, 201.82 121.85, 201.13 209.8 M201.13 32 C201.12 103.05, 201.24 173.74, 201.13 209.8 M201.13 209.8 C202.38 229.82, 188.97 243.51, 169.13 241.8 M201.13 209.8 C199.38 230.1, 189.5 243.23, 169.13 241.8 M169.13 241.8 C140.84 242.1, 111.24 239.79, 32 241.8 M169.13 241.8 C135.02 242.09, 100.74 242.73, 32 241.8 M32 241.8 C8.97 243.79, -1.22 229.82, 0 209.8 M32 241.8 C10.21 242.42, 0.08 232.34, 0 209.8 M0 209.8 C-0.44 150.32, 0.83 87.11, 0 32 M0 209.8 C0.9 149.17, 0.19 90.13, 0 32 M0 32 C-1.08 10.59, 10.27 -0.67, 32 0 M0 32 C-0.47 9.31, 10.77 -0.69, 32 0" stroke="#000000" stroke-width="1" fill="none"></path></g><g stroke-linecap="round"><g stroke-opacity="0.8" fill-opacity="0.8" transform="translate(79.18899400626105 335.1433625870218) rotate(0 96.19052395170445 -0.04375302959419969)"><path d="M-0.15 -0.86 C32.34 -1.24, 161.79 -1.48, 194.07 -1.35 M-1.69 1.3 C30.68 1.04, 159.93 0.65, 192.86 0.14" stroke="#000000" stroke-width="1" fill="none"></path></g></g><mask></mask><g stroke-opacity="0.7" fill-opacity="0.7" stroke-linecap="round" transform="translate(119.85143514740366 370.1756195701599) rotate(0 56 15)"><path d="M7.5 0 M7.5 0 C42.67 -1.11, 79.73 0.43, 104.5 0 M7.5 0 C34.2 -0.06, 60.44 -0.5, 104.5 0 M104.5 0 C111.29 1.92, 113.39 1.97, 112 7.5 M104.5 0 C109.2 2.18, 114.24 4.01, 112 7.5 M112 7.5 C111.29 12.7, 112.57 18.74, 112 22.5 M112 7.5 C112.66 12.33, 112.27 16.9, 112 22.5 M112 22.5 C112.66 29.25, 110.5 28.76, 104.5 30 M112 22.5 C111.81 29.34, 108.97 30.62, 104.5 30 M104.5 30 C68.88 30.38, 30.08 29.63, 7.5 30 M104.5 30 C68.77 30.21, 33.06 29.94, 7.5 30 M7.5 30 C0.93 29.68, -1.55 26.83, 0 22.5 M7.5 30 C1.77 31.79, -0.7 28.92, 0 22.5 M0 22.5 C-0.91 15.33, 0.55 11.48, 0 7.5 M0 22.5 C-0.18 19.08, 0.3 16.07, 0 7.5 M0 7.5 C0.99 4.34, 2.41 1.15, 7.5 0 M0 7.5 C-1.15 2.98, 3.49 -0.55, 7.5 0" stroke="#000000" stroke-width="1" fill="none"></path></g><g stroke-opacity="0.4" fill-opacity="0.4" transform="translate(148.35143514740366 375.1756195701599) rotate(0 27.5 10)"><text x="27.5" y="14" font-family="Virgil, Segoe UI Emoji" font-size="16px" fill="#000000" text-anchor="middle" style="white-space: pre;" direction="ltr">Nombre</text></g><g stroke-opacity="0.8" fill-opacity="0.8" stroke-linecap="round" transform="translate(125.481619305408 404.5823005357418) rotate(0 53.48674950104146 15)"><path d="M7.5 0 M7.5 0 C27.21 0.08, 49.83 0.1, 99.47 0 M7.5 0 C41.35 -0.82, 73.08 0.15, 99.47 0 M99.47 0 C105.04 -1.89, 108.97 4.11, 106.97 7.5 M99.47 0 C104.38 -1.04, 108.34 1.69, 106.97 7.5 M106.97 7.5 C107.97 11.99, 107.43 18.63, 106.97 22.5 M106.97 7.5 C106.74 12.32, 106.33 15.65, 106.97 22.5 M106.97 22.5 C107.69 27.91, 103.58 30.56, 99.47 30 M106.97 22.5 C106.27 26.09, 105.19 32.3, 99.47 30 M99.47 30 C70.64 28.9, 45.18 30.85, 7.5 30 M99.47 30 C65.49 29.18, 32.3 29.67, 7.5 30 M7.5 30 C0.56 30.03, -1.87 27.3, 0 22.5 M7.5 30 C0.77 30.24, -1.2 26.17, 0 22.5 M0 22.5 C-1.09 17.99, -1.38 10.56, 0 7.5 M0 22.5 C-0.45 18.95, 0.16 15.77, 0 7.5 M0 7.5 C-0.52 1.12, 4.22 -1.6, 7.5 0 M0 7.5 C-0.22 0.98, 3.49 -2.14, 7.5 0" stroke="#000000" stroke-width="1" fill="none"></path></g><g stroke-opacity="0.4" fill-opacity="0.4" transform="translate(152.46836880644946 409.5823005357418) rotate(0 26.5 10)"><text x="26.5" y="14" font-family="Virgil, Segoe UI Emoji" font-size="16px" fill="#000000" text-anchor="middle" style="white-space: pre;" direction="ltr">Correo</text></g><g stroke-opacity="0.8" fill-opacity="0.8" stroke-linecap="round" transform="translate(126.73277134052012 439.6145575188801) rotate(0 55.67626556248757 15)"><path d="M7.5 0 M7.5 0 C26.84 -0.6, 46.78 -0.15, 103.85 0 M7.5 0 C31.31 -1.07, 54.64 -1.27, 103.85 0 M103.85 0 C106.97 -1.13, 110.68 1.49, 111.35 7.5 M103.85 0 C107.33 0.32, 111.69 4.26, 111.35 7.5 M111.35 7.5 C110.05 11.46, 110.26 16.36, 111.35 22.5 M111.35 7.5 C111.48 10.36, 111.5 13.81, 111.35 22.5 M111.35 22.5 C110.07 28.12, 110.67 28.53, 103.85 30 M111.35 22.5 C110.55 25.92, 109.37 29.97, 103.85 30 M103.85 30 C68.95 30.56, 34.5 27.77, 7.5 30 M103.85 30 C68.46 28.99, 34.98 30.94, 7.5 30 M7.5 30 C4.45 29.99, 0.53 27.89, 0 22.5 M7.5 30 C1.41 29.05, -1.76 25.32, 0 22.5 M0 22.5 C1.42 17.84, 0.42 14.02, 0 7.5 M0 22.5 C0.2 17.25, -0.16 12.09, 0 7.5 M0 7.5 C-0.6 3.96, 2.75 0.02, 7.5 0 M0 7.5 C-2.24 3.81, 0.26 2.01, 7.5 0" stroke="#000000" stroke-width="1" fill="none"></path></g><g stroke-opacity="0.4" fill-opacity="0.4" transform="translate(135.90903690300775 444.6145575188801) rotate(0 46.5 10)"><text x="46.5" y="14" font-family="Virgil, Segoe UI Emoji" font-size="16px" fill="#000000" text-anchor="middle" style="white-space: pre;" direction="ltr">Contraseña</text></g><g stroke-opacity="0.8" fill-opacity="0.8" stroke-linecap="round" transform="translate(142.9977477969772 475.27239051957423) rotate(0 34.40668096558224 15)"><path d="M7.5 0 M7.5 0 C26.35 -0.35, 41.91 0.83, 61.31 0 M7.5 0 C26.11 -0.21, 44.03 -0.26, 61.31 0 M61.31 0 C65.71 1.46, 69.06 2.52, 68.81 7.5 M61.31 0 C64.08 1.31, 66.57 4.51, 68.81 7.5 M68.81 7.5 C67.34 12.52, 67.58 19.21, 68.81 22.5 M68.81 7.5 C69.46 13.25, 68.57 18.41, 68.81 22.5 M68.81 22.5 C70.79 28.38, 65.42 29.2, 61.31 30 M68.81 22.5 C71 26.41, 64.47 28.79, 61.31 30 M61.31 30 C47.5 29.86, 37.19 29.67, 7.5 30 M61.31 30 C43.56 30.2, 24.79 30.71, 7.5 30 M7.5 30 C3.08 29.86, -0.68 25.86, 0 22.5 M7.5 30 C0.53 31.15, 1.02 27.83, 0 22.5 M0 22.5 C-0.6 18.73, 1.2 13.55, 0 7.5 M0 22.5 C-0.11 18.05, -0.2 13.18, 0 7.5 M0 7.5 C0.79 0.51, 2.35 -1.06, 7.5 0 M0 7.5 C-0.32 3.66, 4.55 1.38, 7.5 0" stroke="#000000" stroke-width="1" fill="none"></path></g><g stroke-opacity="0.4" fill-opacity="0.4" transform="translate(154.4044287625594 480.27239051957423) rotate(0 23 10)"><text x="23" y="14" font-family="Virgil, Segoe UI Emoji" font-size="16px" fill="#000000" text-anchor="middle" style="white-space: pre;" direction="ltr">Crear</text></g><g stroke-opacity="0.8" fill-opacity="0.8" transform="translate(102.33530665583453 303.74589790233625) rotate(0 71.5 10)"><text x="0" y="14" font-family="Virgil, Segoe UI Emoji" font-size="16px" fill="#000000" text-anchor="start" style="white-space: pre;" direction="ltr">Igresa tus datos</text></g><g stroke-opacity="0.7" fill-opacity="0.7" transform="translate(303.14520829132334 225.54889570783126) rotate(0 45 10)"><text x="0" y="14" font-family="Virgil, Segoe UI Emoji" font-size="16px" fill="#000000" text-anchor="start" style="white-space: pre;" direction="ltr">Andd friend</text></g><g stroke-linecap="round"><g stroke-opacity="0.7" fill-opacity="0.7" transform="translate(356.024549442479 248.5115669594556) rotate(0 49.21468491301707 25.752299412061546)"><path d="M-1.07 -0.82 C15.07 7.57, 80.67 42.24, 97.26 51.16 M0.57 1.36 C17.05 9.83, 83.3 44.08, 99.5 52.33" stroke="#000000" stroke-width="1" fill="none"></path></g><g stroke-opacity="0.7" fill-opacity="0.7" transform="translate(356.024549442479 248.5115669594556) rotate(0 49.21468491301707 25.752299412061546)"><path d="M68.36 47.1 C78.45 50.54, 90.93 52.11, 99.93 50.43 M70.11 49.2 C77.28 48.74, 85.6 49.87, 100.13 52.77" stroke="#000000" stroke-width="1" fill="none"></path></g><g stroke-opacity="0.7" fill-opacity="0.7" transform="translate(356.024549442479 248.5115669594556) rotate(0 49.21468491301707 25.752299412061546)"><path d="M77.74 28.84 C84.84 38.25, 94.21 45.87, 99.93 50.43 M79.49 30.94 C84.12 35.19, 90.02 41.03, 100.13 52.77" stroke="#000000" stroke-width="1" fill="none"></path></g></g><mask></mask><g stroke-opacity="0.7" fill-opacity="0.7" stroke-linecap="round" transform="translate(386.02645626374084 302.41329785867174) rotate(0 113.39703764646416 59.24105329961023)"><path d="M29.62 0 M29.62 0 C93.16 0.05, 153.27 2.09, 197.17 0 M29.62 0 C76.67 -1.02, 125.58 -1.44, 197.17 0 M197.17 0 C214.99 1.44, 227.58 10.99, 226.79 29.62 M197.17 0 C216.74 2.26, 226.63 11.29, 226.79 29.62 M226.79 29.62 C227.36 52.98, 224.66 73.3, 226.79 88.86 M226.79 29.62 C226.95 53.49, 227.15 75.65, 226.79 88.86 M226.79 88.86 C225.24 107.34, 216.01 117.91, 197.17 118.48 M226.79 88.86 C228.41 106.57, 217.73 118.54, 197.17 118.48 M197.17 118.48 C133.58 117.84, 67.18 118.67, 29.62 118.48 M197.17 118.48 C154.38 119.56, 109.7 119.19, 29.62 118.48 M29.62 118.48 C8.78 117.06, -1.15 107.5, 0 88.86 M29.62 118.48 C7.89 119.86, -0.29 106.97, 0 88.86 M0 88.86 C-1.21 74.66, 1.59 59.3, 0 29.62 M0 88.86 C-0.81 67.67, -0.91 47.06, 0 29.62 M0 29.62 C1.87 11.7, 10.61 -0.75, 29.62 0 M0 29.62 C1.79 10.28, 10.71 0.94, 29.62 0" stroke="#000000" stroke-width="1" fill="none"></path></g><g stroke-opacity="0.7" fill-opacity="0.7" stroke-linecap="round" transform="translate(417.04537687555387 343.0938494807218) rotate(0 79 14.999999999999972)"><path d="M7.5 0 M7.5 0 C49.05 0.34, 93.82 -0.86, 150.5 0 M7.5 0 C54.69 -2.21, 104.3 -0.86, 150.5 0 M150.5 0 C156.52 1.71, 157.16 0.74, 158 7.5 M150.5 0 C155.62 1.05, 160.28 0.24, 158 7.5 M158 7.5 C157.05 12.1, 156.62 19.25, 158 22.5 M158 7.5 C157.93 11.16, 157.45 16.42, 158 22.5 M158 22.5 C159.62 27.9, 156.71 30.42, 150.5 30 M158 22.5 C155.77 25.92, 155.88 28.19, 150.5 30 M150.5 30 C95.43 30.55, 40.44 31.66, 7.5 30 M150.5 30 C103.21 31.74, 53.79 31.19, 7.5 30 M7.5 30 C2.82 30.68, -1.79 27.79, 0 22.5 M7.5 30 C0.48 28.58, 1.2 26.51, 0 22.5 M0 22.5 C-1.04 20.81, 1.2 17.58, 0 7.5 M0 22.5 C0.3 19.09, -0.29 16.12, 0 7.5 M0 7.5 C1.97 0.55, 4.23 0.99, 7.5 0 M0 7.5 C-0.28 2.8, 4.31 1.27, 7.5 0" stroke="#000000" stroke-width="1" fill="none"></path></g><g stroke-opacity="0.7" fill-opacity="0.7" transform="translate(469.54537687555387 348.0938494807218) rotate(0 26.5 10)"><text x="26.5" y="14" font-family="Virgil, Segoe UI Emoji" font-size="16px" fill="#000000" text-anchor="middle" style="white-space: pre;" direction="ltr">Correo</text></g><g stroke-opacity="0.7" fill-opacity="0.7" stroke-linecap="round" transform="translate(473.4896422511481 382.75738731222015) rotate(0 25.5 15)"><path d="M7.5 0 M7.5 0 C21.63 -2.16, 33.55 0.12, 43.5 0 M7.5 0 C16.38 0.03, 23.06 0.44, 43.5 0 M43.5 0 C48.85 0.73, 51.82 4.04, 51 7.5 M43.5 0 C50.35 1.46, 49.82 2.71, 51 7.5 M51 7.5 C51.27 10.92, 50.12 17.77, 51 22.5 M51 7.5 C50.13 10.79, 51.58 15.76, 51 22.5 M51 22.5 C52.78 26.05, 48.83 29.06, 43.5 30 M51 22.5 C52 27.52, 47.69 31.35, 43.5 30 M43.5 30 C30.14 30.07, 15.06 31.89, 7.5 30 M43.5 30 C31.63 29.93, 18.07 29.19, 7.5 30 M7.5 30 C2.95 30.01, -1.5 28.81, 0 22.5 M7.5 30 C3.09 31.57, 0.51 27.39, 0 22.5 M0 22.5 C1.37 16.63, 0.22 12.52, 0 7.5 M0 22.5 C-0.43 18.32, -0.1 14.89, 0 7.5 M0 7.5 C-1.43 0.94, 3.39 -1.34, 7.5 0 M0 7.5 C-2.02 3.45, 1.49 -0.85, 7.5 0" stroke="#000000" stroke-width="1" fill="none"></path></g><g stroke-opacity="0.7" fill-opacity="0.7" transform="translate(483.4896422511481 387.75738731222015) rotate(0 15.5 10)"><text x="15.5" y="14" font-family="Virgil, Segoe UI Emoji" font-size="16px" fill="#000000" text-anchor="middle" style="white-space: pre;" direction="ltr">Add</text></g><g stroke-linecap="round"><g stroke-opacity="0.7" fill-opacity="0.7" transform="translate(387.5519769495677 327.83864262245294) rotate(0 111.46264121454357 1.3838348148201192)"><path d="M0.32 0.92 C37.75 1.07, 186.55 1.2, 223.9 1.27 M-0.97 0.36 C36.37 0.62, 185.54 2.09, 223.03 2.41" stroke="#000000" stroke-width="1" fill="none"></path></g></g><mask></mask><g stroke-opacity="0.7" fill-opacity="0.7" transform="translate(445.5217630109888 308.634477135838) rotate(0 55.5 10)"><text x="0" y="14" font-family="Virgil, Segoe UI Emoji" font-size="16px" fill="#000000" text-anchor="start" style="white-space: pre;" direction="ltr">Agregar amigo</text></g></svg>